<svg width="28" height="26" viewBox="0 0 28 26" xmlns="http://www.w3.org/2000/svg"><title>white-monkey</title><g transform="translate(0 .867)" fill-rule="nonzero" fill="#FFF"><path d="M24.49 8.728c-.543 0-1.056.127-1.516.346a9.594 9.594 0 0 0-4.892-5.247 5.414 5.414 0 0 1 1.035-2.108c-1.324-.294-2.773.119-3.774 1.023A5.42 5.42 0 0 1 15.211 0c-1.49.37-2.713 1.622-3.069 3.103a9.598 9.598 0 0 0-7.116 5.971 3.506 3.506 0 0 0-1.516-.346C1.57 8.728 0 10.29 0 12.216s1.571 3.488 3.51 3.488c.537 0 1.043-.124 1.498-.338.747 1.473 2.137 2.29 3.919 2.726a5.13 5.13 0 0 0 .95 4.282c1.751 2.263 5.016 2.687 7.293.947a5.147 5.147 0 0 0 1.9-5.228c1.783-.436 3.175-1.252 3.922-2.726.455.214.962.337 1.498.337 1.939 0 3.51-1.562 3.51-3.488s-1.571-3.488-3.51-3.488zm-7.104 8.657c-.035 0-.069-.004-.104-.005.31.545.49 1.173.49 1.844 0 2.07-1.688 3.749-3.772 3.749-2.084 0-3.772-1.678-3.772-3.749 0-.67.179-1.297.489-1.841l-.058.002c-2.108 0-3.818-1.698-3.818-3.793 0-2.096 1.71-3.794 3.818-3.794 1.485 0 2.769.844 3.4 2.074a3.774 3.774 0 0 1 3.327-1.984c2.083 0 3.772 1.679 3.772 3.749 0 2.07-1.688 3.748-3.772 3.748z"/><ellipse cx="10.636" cy="12.829" rx="1" ry="1"/><ellipse cx="17.364" cy="12.895" rx="1" ry="1"/><ellipse cx="13.075" cy="15.609" rx="1" ry="1"/><ellipse cx="14.925" cy="15.609" rx="1" ry="1"/><path d="M14 19.656a1.645 1.645 0 0 1-1.648-1.638h-.909A2.552 2.552 0 0 0 14 20.56c1.41 0 2.557-1.14 2.557-2.54h-.909c0 .902-.74 1.637-1.648 1.637z"/></g></svg>